<svg width="613" height="95" viewBox="0 0 613 95" fill="none" xmlns="http://www.w3.org/2000/svg">
<path d="M26.3516 69.672C21.4236 69.672 17.0076 68.872 13.1036 67.272C9.19963 65.672 6.06363 63.304 3.69563 60.168C1.39163 57.032 0.175625 53.256 0.0476253 48.84H17.5196C17.7756 51.336 18.6396 53.256 20.1116 54.6C21.5836 55.88 23.5036 56.52 25.8716 56.52C28.3036 56.52 30.2236 55.976 31.6316 54.888C33.0396 53.736 33.7436 52.168 33.7436 50.184C33.7436 48.52 33.1676 47.144 32.0156 46.056C30.9276 44.968 29.5516 44.072 27.8876 43.368C26.2876 42.664 23.9836 41.864 20.9756 40.968C16.6236 39.624 13.0716 38.28 10.3196 36.936C7.56763 35.592 5.19963 33.608 3.21563 30.984C1.23163 28.36 0.239625 24.936 0.239625 20.712C0.239625 14.44 2.51163 9.544 7.05563 6.024C11.5996 2.44 17.5196 0.647999 24.8156 0.647999C32.2396 0.647999 38.2236 2.44 42.7676 6.024C47.3116 9.544 49.7436 14.472 50.0636 20.808H32.3036C32.1756 18.632 31.3756 16.936 29.9036 15.72C28.4316 14.44 26.5436 13.8 24.2396 13.8C22.2556 13.8 20.6556 14.344 19.4396 15.432C18.2236 16.456 17.6156 17.96 17.6156 19.944C17.6156 22.12 18.6396 23.816 20.6876 25.032C22.7356 26.248 25.9356 27.56 30.2876 28.968C34.6396 30.44 38.1596 31.848 40.8476 33.192C43.5996 34.536 45.9676 36.488 47.9516 39.048C49.9356 41.608 50.9276 44.904 50.9276 48.936C50.9276 52.776 49.9356 56.264 47.9516 59.4C46.0316 62.536 43.2156 65.032 39.5036 66.888C35.7916 68.744 31.4076 69.672 26.3516 69.672ZM129.382 14.856C136.038 14.856 141.318 16.872 145.222 20.904C149.19 24.936 151.174 30.536 151.174 37.704V69H134.854V39.912C134.854 36.456 133.926 33.8 132.07 31.944C130.278 30.024 127.782 29.064 124.582 29.064C121.382 29.064 118.854 30.024 116.998 31.944C115.206 33.8 114.31 36.456 114.31 39.912V69H97.9901V39.912C97.9901 36.456 97.0621 33.8 95.2061 31.944C93.4141 30.024 90.9181 29.064 87.7181 29.064C84.5181 29.064 81.9901 30.024 80.1341 31.944C78.3421 33.8 77.4461 36.456 77.4461 39.912V69H61.0301V15.432H77.4461V22.152C79.1101 19.912 81.2861 18.152 83.9741 16.872C86.6621 15.528 89.7021 14.856 93.0941 14.856C97.1261 14.856 100.71 15.72 103.846 17.448C107.046 19.176 109.542 21.64 111.334 24.84C113.19 21.896 115.718 19.496 118.918 17.64C122.118 15.784 125.606 14.856 129.382 14.856ZM159.391 42.12C159.391 36.616 160.415 31.784 162.463 27.624C164.575 23.464 167.423 20.264 171.007 18.024C174.591 15.784 178.591 14.664 183.007 14.664C186.783 14.664 190.079 15.432 192.895 16.968C195.775 18.504 197.983 20.52 199.519 23.016V15.432H215.935V69H199.519V61.416C197.919 63.912 195.679 65.928 192.799 67.464C189.983 69 186.687 69.768 182.911 69.768C178.559 69.768 174.591 68.648 171.007 66.408C167.423 64.104 164.575 60.872 162.463 56.712C160.415 52.488 159.391 47.624 159.391 42.12ZM199.519 42.216C199.519 38.12 198.367 34.888 196.063 32.52C193.823 30.152 191.071 28.968 187.807 28.968C184.543 28.968 181.759 30.152 179.455 32.52C177.215 34.824 176.095 38.024 176.095 42.12C176.095 46.216 177.215 49.48 179.455 51.912C181.759 54.28 184.543 55.464 187.807 55.464C191.071 55.464 193.823 54.28 196.063 51.912C198.367 49.544 199.519 46.312 199.519 42.216ZM244.227 24.36C246.147 21.416 248.547 19.112 251.427 17.448C254.307 15.72 257.507 14.856 261.027 14.856V32.232H256.515C252.419 32.232 249.347 33.128 247.299 34.92C245.251 36.648 244.227 39.72 244.227 44.136V69H227.811V15.432H244.227V24.36ZM298.73 55.08V69H290.378C284.426 69 279.786 67.56 276.458 64.68C273.13 61.736 271.466 56.968 271.466 50.376V29.064H264.938V15.432H271.466V2.376H287.882V15.432H298.634V29.064H287.882V50.568C287.882 52.168 288.266 53.32 289.034 54.024C289.802 54.728 291.082 55.08 292.874 55.08H298.73ZM324.954 42.312C324.954 37 326.042 32.264 328.218 28.104C330.458 23.944 333.434 20.712 337.146 18.408C340.922 16.04 345.018 14.856 349.434 14.856C352.826 14.856 355.866 15.464 358.554 16.68C361.242 17.832 363.418 19.464 365.082 21.576V15.432H381.498V94.536H365.082V62.28C363.226 64.52 360.954 66.312 358.266 67.656C355.642 69 352.634 69.672 349.242 69.672C344.89 69.672 340.858 68.52 337.146 66.216C333.434 63.912 330.458 60.68 328.218 56.52C326.042 52.36 324.954 47.624 324.954 42.312ZM365.082 42.216C365.082 39.336 364.506 36.936 363.354 35.016C362.266 33.032 360.826 31.56 359.034 30.6C357.242 29.576 355.354 29.064 353.37 29.064C351.45 29.064 349.594 29.576 347.802 30.6C346.01 31.56 344.538 33.032 343.386 35.016C342.234 37 341.658 39.432 341.658 42.312C341.658 45.192 342.234 47.624 343.386 49.608C344.538 51.528 346.01 53 347.802 54.024C349.594 54.984 351.45 55.464 353.37 55.464C355.29 55.464 357.146 54.984 358.938 54.024C360.794 53 362.266 51.496 363.354 49.512C364.506 47.528 365.082 45.096 365.082 42.216ZM446.27 15.432V69H429.854V61.704C428.19 64.072 425.918 65.992 423.038 67.464C420.222 68.872 417.086 69.576 413.63 69.576C409.534 69.576 405.918 68.68 402.782 66.888C399.646 65.032 397.214 62.376 395.486 58.92C393.758 55.464 392.894 51.4 392.894 46.728V15.432H409.214V44.52C409.214 48.104 410.142 50.888 411.998 52.872C413.854 54.856 416.35 55.848 419.486 55.848C422.686 55.848 425.214 54.856 427.07 52.872C428.926 50.888 429.854 48.104 429.854 44.52V15.432H446.27ZM508.557 41.352C508.557 42.888 508.461 44.488 508.269 46.152H471.117C471.373 49.48 472.429 52.04 474.285 53.832C476.205 55.56 478.541 56.424 481.293 56.424C485.389 56.424 488.237 54.696 489.837 51.24H507.309C506.413 54.76 504.781 57.928 502.413 60.744C500.109 63.56 497.197 65.768 493.677 67.368C490.157 68.968 486.221 69.768 481.869 69.768C476.621 69.768 471.949 68.648 467.853 66.408C463.757 64.168 460.557 60.968 458.253 56.808C455.949 52.648 454.797 47.784 454.797 42.216C454.797 36.648 455.917 31.784 458.157 27.624C460.461 23.464 463.661 20.264 467.757 18.024C471.853 15.784 476.557 14.664 481.869 14.664C487.053 14.664 491.661 15.752 495.693 17.928C499.725 20.104 502.861 23.208 505.101 27.24C507.405 31.272 508.557 35.976 508.557 41.352ZM491.757 37.032C491.757 34.216 490.797 31.976 488.877 30.312C486.957 28.648 484.557 27.816 481.677 27.816C478.925 27.816 476.589 28.616 474.669 30.216C472.813 31.816 471.661 34.088 471.213 37.032H491.757ZM533.634 24.36C535.554 21.416 537.954 19.112 540.834 17.448C543.714 15.72 546.914 14.856 550.434 14.856V32.232H545.922C541.826 32.232 538.754 33.128 536.706 34.92C534.658 36.648 533.634 39.72 533.634 44.136V69H517.218V15.432H533.634V24.36ZM613 15.432L579.4 94.44H561.736L574.024 67.176L552.232 15.432H570.568L582.952 48.936L595.24 15.432H613Z" fill="#0C0404"/>
</svg>

