<?xml version="1.0" encoding="UTF-8"?>
<svg version="1.1" xmlns="http://www.w3.org/2000/svg" width="500" height="500">
<path d="M0 0 C1 1 1 1 1.09765625 3.94140625 C1.08605469 5.13636719 1.07445313 6.33132812 1.0625 7.5625 C1.05347656 8.76003906 1.04445313 9.95757812 1.03515625 11.19140625 C1.02355469 12.11824219 1.01195313 13.04507813 1 14 C0.01 14 -0.98 14 -2 14 C-2.48919922 13.07767578 -2.48919922 13.07767578 -2.98828125 12.13671875 C-3.42527344 11.32847656 -3.86226562 10.52023438 -4.3125 9.6875 C-4.74175781 8.88699219 -5.17101562 8.08648437 -5.61328125 7.26171875 C-6.92956208 5.11488326 -8.03134423 3.56203166 -10 2 C-14.6649851 1.49451405 -14.6649851 1.49451405 -18.9375 3.125 C-20.56701554 6.00061566 -20.51143897 7.73957658 -20 11 C-16.53962161 16.68490736 -11.29328213 19.65873561 -5.7421875 23.16796875 C-3.51401757 24.6565894 -1.777254 26.02050675 0 28 C-1.27721526 32.99275057 -3.17330957 35.57611908 -7 39 C-7.5259375 38.11570313 -8.051875 37.23140625 -8.59375 36.3203125 C-11.0116996 32.69551657 -13.99262248 30.39617613 -17.5 27.875 C-28.29704127 19.96696297 -28.29704127 19.96696297 -30 15 C-30.45861299 10.87248305 -30.27498591 8.56097125 -28.4375 4.8125 C-21.28058958 -3.44547356 -9.86235002 -4.80473463 0 0 Z " fill="#87E5E9" transform="translate(90,184)"/>
<path d="M0 0 C6.04840703 -0.37031063 10.6019202 -0.11427681 16 3 C19.42802655 6.25040859 21.77118172 9.44339574 22.203125 14.26953125 C22.30179435 19.62234344 22.18418241 23.48051528 19 28 C16.7734895 30.14734568 14.44701389 32.10943036 12 34 C13.9033662 37.52122747 15.52022305 39.95307238 19 42 C21.64934822 42.71433121 21.64934822 42.71433121 24 43 C24 43.66 24 44.32 24 45 C19.68346919 46.53167222 16.48411627 45.64249853 12.328125 44.15625 C9.01381113 42.51021492 6.64154796 40.16898581 3.9765625 37.63671875 C1.42665908 35.52523746 -1.06080102 34.67552286 -4.17578125 33.671875 C-7.70662974 32.37143401 -10.13263143 30.14334948 -12.375 27.1875 C-13.35165939 23.76919215 -12.8735261 21.43586931 -12 18 C-10.51888781 15.41935029 -8.89554197 13.32203892 -7 11 C-6.67 11 -6.34 11 -6 11 C-5.97421875 11.78503906 -5.9484375 12.57007813 -5.921875 13.37890625 C-5.56367438 20.01375857 -5.06684579 24.65500268 -1 30 C1.53985796 32.03188636 2.72821583 32.00566217 6 31.9375 C9.95795878 30.70063788 10.99543534 29.63791364 13 26 C14.72385736 19.23445023 14.14481828 13.23700361 11 7 C9.51869332 4.76391002 9.51869332 4.76391002 7 4 C3.98153015 3.78066482 1.01965317 3.82578924 -2 4 C-1.34 2.68 -0.68 1.36 0 0 Z " fill="#96E6E9" transform="translate(113,231)"/>
<path d="M0 0 C1.98 0 3.96 0 6 0 C9 5.75 9 5.75 9 8 C9.66 8 10.32 8 11 8 C11.309375 7.05125 11.61875 6.1025 11.9375 5.125 C13 2 13 2 14 0 C15.98 0 17.96 0 20 0 C20 5.94 20 11.88 20 18 C18.35 18 16.7 18 15 18 C14.67 16.35 14.34 14.7 14 13 C13.34 14.32 12.68 15.64 12 17 C10.68 17 9.36 17 8 17 C7.34 15.68 6.68 14.36 6 13 C5.67 14.65 5.34 16.3 5 18 C3.35 18 1.7 18 0 18 C0 12.06 0 6.12 0 0 Z " fill="#97E6E7" transform="translate(175,217)"/>
<path d="M0 0 C3.4203866 1.17013226 3.91540482 1.87310723 6 5 C6.52173913 13.2173913 6.52173913 13.2173913 4 17 C4.99 17.33 5.98 17.66 7 18 C6.67 19.32 6.34 20.64 6 22 C3.375 22.75 3.375 22.75 0 23 C-3.0625 21.25 -3.0625 21.25 -6 19 C-6.886875 18.525625 -7.77375 18.05125 -8.6875 17.5625 C-11.54964541 15.62861797 -12.69006337 14.20206733 -14 11 C-14 6.82044153 -13.65361118 4.77244958 -10.9375 1.5625 C-6.88758087 -0.5917123 -4.56839461 -0.4350852 0 0 Z M-8 7 C-7.67801034 10.09926819 -7.67801034 10.09926819 -7 13 C-5.35 13.33 -3.7 13.66 -2 14 C-0.26352052 12.32511472 -0.26352052 12.32511472 1 10 C0.29042763 7.26601865 0.29042763 7.26601865 -1 5 C-4.95457848 4.65176193 -4.95457848 4.65176193 -8 7 Z " fill="#85E4E5" transform="translate(303,217)"/>
<path d="M0 0 C6.02222588 1.07742271 11.00579449 5.22863759 15.4375 9.25 C16.0975 10.57 16.7575 11.89 17.4375 13.25 C14.4675 17.705 14.4675 17.705 11.4375 22.25 C10.87933594 21.5075 10.32117188 20.765 9.74609375 20 C7.49760656 17.32159902 5.27054694 15.36739797 2.5 13.25 C-1.11748291 10.42868393 -4.42745448 7.59404856 -7.5625 4.25 C-5.19000203 0.98781529 -4.08718139 0.28681975 0 0 Z " fill="#70E1E5" transform="translate(72.5625,200.75)"/>
<path d="M0 0 C4.62 0 9.24 0 14 0 C14.33 1.32 14.66 2.64 15 4 C12.03 4.66 9.06 5.32 6 6 C8.64 6.33 11.28 6.66 14 7 C13.67 8.65 13.34 10.3 13 12 C11.35 12.33 9.7 12.66 8 13 C10.31 13.33 12.62 13.66 15 14 C15 15.32 15 16.64 15 18 C10.38 18.33 5.76 18.66 1 19 C-1.46827522 15.29758718 -1.23759026 13.3408889 -1.1875 8.9375 C-1.18105469 7.68839844 -1.17460937 6.43929687 -1.16796875 5.15234375 C-1 2 -1 2 0 0 Z " fill="#B7EAEB" transform="translate(350,217)"/>
<path d="M0 0 C1.8975 -0.061875 3.795 -0.12375 5.75 -0.1875 C7.35101563 -0.23970703 7.35101563 -0.23970703 8.984375 -0.29296875 C12.3416148 0.03318797 13.68303267 0.57746342 16 3 C16.29752873 6.27281606 16.25714577 8.99998868 15.4375 12.1875 C14.89978278 14.41518561 15.30718474 15.84457475 16 18 C14.02 18 12.04 18 10 18 C9.67 16.68 9.34 15.36 9 14 C7.68 14 6.36 14 5 14 C5 15.32 5 16.64 5 18 C3.35 18 1.7 18 0 18 C0 12.06 0 6.12 0 0 Z M7 4 C6.67 5.65 6.34 7.3 6 9 C7.65 8.67 9.3 8.34 11 8 C10.67 7.01 10.34 6.02 10 5 C9.01 4.67 8.02 4.34 7 4 Z " fill="#80DFE1" transform="translate(237,217)"/>
<path d="M0 0 C11.33805722 -0.49295901 11.33805722 -0.49295901 14.40234375 1.7890625 C16 4 16 4 15.8125 7.625 C15 11 15 11 14 13 C14.89363605 15.60931266 14.89363605 15.60931266 16 18 C13.125 18.1875 13.125 18.1875 10 18 C9.34 17.01 8.68 16.02 8 15 C7.01 14.67 6.02 14.34 5 14 C5 15.32 5 16.64 5 18 C3.35 18 1.7 18 0 18 C0 12.06 0 6.12 0 0 Z M7 4 C6.01 4.495 6.01 4.495 5 5 C5.33 6.32 5.66 7.64 6 9 C7.32 8.67 8.64 8.34 10 8 C10 7.01 10 6.02 10 5 C9.01 4.67 8.02 4.34 7 4 Z " fill="#88E2E4" transform="translate(377,217)"/>
<path d="M0 0 C1.65 0 3.3 0 5 0 C5.33 3.96 5.66 7.92 6 12 C7.32 12 8.64 12 10 12 C10.33 8.04 10.66 4.08 11 0 C12.65 0 14.3 0 16 0 C17.714468 1.714468 17.21251477 3.91342066 17.25 6.25 C17.20436638 10.64794023 17.06136403 13.61063268 14 17 C11.28562321 19.13272462 9.95173167 18.99745956 6.4375 18.8125 C1.81294964 17.71942446 1.81294964 17.71942446 0 15 C-0.97923976 11.89907408 -1.13457673 9.05422284 -1.125 5.8125 C-1.12757813 4.93207031 -1.13015625 4.05164063 -1.1328125 3.14453125 C-1 1 -1 1 0 0 Z " fill="#66DCE1" transform="translate(321,217)"/>
<path d="M0 0 C1.17755859 0.02320313 1.17755859 0.02320313 2.37890625 0.046875 C4.4375 0.25 4.4375 0.25 6.4375 1.25 C6.1075 3.23 5.7775 5.21 5.4375 7.25 C3.4575 6.59 1.4775 5.93 -0.5625 5.25 C0.015 5.4975 0.5925 5.745 1.1875 6 C3.84826851 7.47820473 5.57306544 8.83314039 7.4375 11.25 C7.5 13.8125 7.5 13.8125 6.4375 16.25 C3.39059983 18.93844133 1.89702001 19.27376828 -2.1875 19.0625 C-5.5625 18.25 -5.5625 18.25 -8.5625 16.25 C-8.2325 14.93 -7.9025 13.61 -7.5625 12.25 C-4.79973823 12.77268466 -2.2364124 13.35869587 0.4375 14.25 C0.4375 13.59 0.4375 12.93 0.4375 12.25 C-0.696875 11.940625 -1.83125 11.63125 -3 11.3125 C-6.5625 10.25 -6.5625 10.25 -7.5625 9.25 C-8.02887878 3.88664405 -8.02887878 3.88664405 -6.33203125 1.5703125 C-4.07289577 -0.11531176 -2.79007075 -0.09192984 0 0 Z " fill="#9EE7E9" transform="translate(156.5625,216.75)"/>
<path d="M0 0 C1.98 0 3.96 0 6 0 C6.98592155 2.05927956 7.96347494 4.12256688 8.9375 6.1875 C9.48277344 7.33605469 10.02804688 8.48460937 10.58984375 9.66796875 C11.79460131 12.51466736 12.54776271 14.96027845 13 18 C11.02 18 9.04 18 7 18 C6.67 17.34 6.34 16.68 6 16 C4.02 16 2.04 16 0 16 C-0.33 16.66 -0.66 17.32 -1 18 C-2.98 18 -4.96 18 -7 18 C-5.06375702 11.79522136 -2.74390859 5.89174281 0 0 Z M2 8 C2 8.99 2 9.98 2 11 C2.66 11 3.32 11 4 11 C4 10.01 4 9.02 4 8 C3.34 8 2.68 8 2 8 Z " fill="#8EE7EB" transform="translate(213,217)"/>
<path d="M0 0 C2.8125 -0.3125 2.8125 -0.3125 6 0 C7.875 2.5 7.875 2.5 9 5 C9.37125 4.175 9.7425 3.35 10.125 2.5 C10.74375 1.675 11.3625 0.85 12 0 C15.1875 -0.3125 15.1875 -0.3125 18 0 C17.06928116 3.07853154 16.17957962 5.71985579 14.4375 8.4375 C12.66096946 11.60435879 12.35153102 14.41438358 12 18 C10.02 18 8.04 18 6 18 C5.90203125 17.43152344 5.8040625 16.86304688 5.703125 16.27734375 C4.63191682 10.74584634 2.93353461 6.79143986 0 2 C0 1.34 0 0.68 0 0 Z " fill="#83E2E5" transform="translate(403,217)"/>
<path d="M0 0 C5.28 0 10.56 0 16 0 C15.67 1.65 15.34 3.3 15 5 C13.68 5 12.36 5 11 5 C11.020625 6.216875 11.04125 7.43375 11.0625 8.6875 C11.06824116 11.91977322 10.78766315 14.84934741 10 18 C9.01 18.33 8.02 18.66 7 19 C6.34 18.67 5.68 18.34 5 18 C5 13.71 5 9.42 5 5 C3.35 5 1.7 5 0 5 C0 3.35 0 1.7 0 0 Z " fill="#8DE0E1" transform="translate(264,217)"/>
<path d="M0 0 C2.91003154 2.57425867 4.81438782 5.27338236 6.8125 8.5625 C9.68217511 13.0248081 11.96505763 14.48951729 17 16 C16.67 17.32 16.34 18.64 16 20 C13.89455987 19.71767279 11.79066411 19.4238102 9.6875 19.125 C8.51574219 18.96257812 7.34398438 18.80015625 6.13671875 18.6328125 C3 18 3 18 0 16 C-0.41201652 13.40723889 -0.64841511 11.04242692 -0.75 8.4375 C-0.79253906 7.73947266 -0.83507813 7.04144531 -0.87890625 6.32226562 C-0.97172333 4.55014699 -0.9916197 2.77452789 -1 1 C-0.67 0.67 -0.34 0.34 0 0 Z " fill="#92E5E5" transform="translate(60,217)"/>
<path d="M0 0 C1.20527344 -0.00515625 2.41054687 -0.0103125 3.65234375 -0.015625 C7.12150049 0.25459569 10.49979052 0.68729052 13.0625 3.25 C13.13508946 5.43639453 13.14623783 7.62500389 13.125 9.8125 C13.11597656 11.01003906 13.10695313 12.20757812 13.09765625 13.44140625 C13.08605469 14.36824219 13.07445313 15.29507813 13.0625 16.25 C12.0725 16.25 11.0825 16.25 10.0625 16.25 C9.57330078 15.32767578 9.57330078 15.32767578 9.07421875 14.38671875 C8.63722656 13.57847656 8.20023438 12.77023438 7.75 11.9375 C7.32074219 11.13699219 6.89148438 10.33648437 6.44921875 9.51171875 C5.1326898 7.36447858 4.03680274 5.80656614 2.0625 4.25 C-1.66736522 3.98358106 -4.38396071 4.0654869 -7.9375 5.25 C-7.9375 4.59 -7.9375 3.93 -7.9375 3.25 C-8.9275 2.92 -9.9175 2.59 -10.9375 2.25 C-7.31298311 -0.02775126 -4.22173665 -0.01802235 0 0 Z " fill="#A4E8EA" transform="translate(77.9375,181.75)"/>
<path d="M0 0 C0.99 0 1.98 0 3 0 C2.38467153 5.26488151 0.68136724 9.63481874 -1.37890625 14.4609375 C-1.71043198 15.25150543 -2.0419577 16.04207336 -2.38352966 16.8565979 C-3.43718016 19.36531025 -4.49968653 21.87015776 -5.5625 24.375 C-6.28118819 26.08178326 -6.99929351 27.78881207 -7.71679688 29.49609375 C-9.47112961 33.66693547 -11.23341099 37.83433557 -13 42 C-13.99 41.67 -14.98 41.34 -16 41 C-13.27524223 32.27487313 -9.7776965 23.88735601 -6.3125 15.4375 C-5.6996065 13.93695647 -5.08697412 12.43630626 -4.47460938 10.93554688 C-2.98608128 7.28912737 -1.49402412 3.64417091 0 0 Z " fill="#797979" transform="translate(107,209)"/>
<path d="M0 0 C0.33 0 0.66 0 1 0 C1.01417969 0.76183594 1.02835937 1.52367187 1.04296875 2.30859375 C1.35321178 9.02493617 2.30497787 13.6257401 6.0390625 19.2578125 C6.35617188 19.83273437 6.67328125 20.40765625 7 21 C6.67 21.66 6.34 22.32 6 23 C4.68 22.34 3.36 21.68 2 21 C2 20.34 2 19.68 2 19 C1.236875 19.103125 0.47375 19.20625 -0.3125 19.3125 C-3 19 -3 19 -4.875 16.9375 C-6.36476946 13.04754641 -6.10702218 11.0129554 -5 7 C-3.51351594 4.42376243 -1.89483694 2.32117525 0 0 Z " fill="#69DEDE" transform="translate(106,242)"/>
<path d="M0 0 C1.51400391 0.01740234 1.51400391 0.01740234 3.05859375 0.03515625 C4.07050781 0.04417969 5.08242188 0.05320313 6.125 0.0625 C7.29869141 0.07990234 7.29869141 0.07990234 8.49609375 0.09765625 C8.49609375 1.41765625 8.49609375 2.73765625 8.49609375 4.09765625 C6.84609375 4.42765625 5.19609375 4.75765625 3.49609375 5.09765625 C5.80609375 5.42765625 8.11609375 5.75765625 10.49609375 6.09765625 C10.49609375 7.41765625 10.49609375 8.73765625 10.49609375 10.09765625 C8.91285687 10.12484925 7.32948313 10.14413931 5.74609375 10.16015625 C4.42351562 10.17755859 4.42351562 10.17755859 3.07421875 10.1953125 C0.71420995 10.10591823 -1.24889149 9.76678446 -3.50390625 9.09765625 C-3.6015625 2.9453125 -3.6015625 2.9453125 -3.50390625 1.09765625 C-2.50390625 0.09765625 -2.50390625 0.09765625 0 0 Z " fill="#9AE3E7" transform="translate(354.50390625,224.90234375)"/>
<path d="M0 0 C1.98 0 3.96 0 6 0 C5.67 1.65 5.34 3.3 5 5 C5.66 5 6.32 5 7 5 C7 5.99 7 6.98 7 8 C6.34 8 5.68 8 5 8 C4.67 11.3 4.34 14.6 4 18 C2.68 18 1.36 18 0 18 C0 12.06 0 6.12 0 0 Z " fill="#88DFE3" transform="translate(175,217)"/>
<path d="M0 0 C2.35953094 2.35953094 2.49141413 3.77895617 3 7 C3.66 7 4.32 7 5 7 C5.33 6.34 5.66 5.68 6 5 C8.21538462 11.4 8.21538462 11.4 7.125 14.4375 C6.75375 14.953125 6.3825 15.46875 6 16 C4.68 16 3.36 16 2 16 C1.34 14.68 0.68 13.36 0 12 C-0.33 13.65 -0.66 15.3 -1 17 C-1.33 17 -1.66 17 -2 17 C-2 13.37 -2 9.74 -2 6 C-1.01 6.33 -0.02 6.66 1 7 C1 6.01 1 5.02 1 4 C0.34 4 -0.32 4 -1 4 C-0.67 2.68 -0.34 1.36 0 0 Z " fill="#9BEAEE" transform="translate(181,218)"/>
<path d="M0 0 C1.98 0 3.96 0 6 0 C6.86366822 1.78710586 7.71568594 3.5798465 8.5625 5.375 C9.27599609 6.87160156 9.27599609 6.87160156 10.00390625 8.3984375 C10.33261719 9.25695312 10.66132813 10.11546875 11 11 C10.67 11.66 10.34 12.32 10 13 C9.34 12.01 8.68 11.02 8 10 C7.34 10 6.68 10 6 10 C5.67 10.66 5.34 11.32 5 12 C3.68 12 2.36 12 1 12 C1.33 11.01 1.66 10.02 2 9 C2 9.66 2 10.32 2 11 C2.66 11 3.32 11 4 11 C4 10.01 4 9.02 4 8 C2.68 7.67 1.36 7.34 0 7 C-1.125 2.25 -1.125 2.25 0 0 Z " fill="#97E8EA" transform="translate(213,217)"/>
<path d="M0 0 C3.96 0 7.92 0 12 0 C12.66 2.97 13.32 5.94 14 9 C12.02 9 10.04 9 8 9 C7.67 7.68 7.34 6.36 7 5 C5.35 5 3.7 5 2 5 C2 5.66 2 6.32 2 7 C1.34 7 0.68 7 0 7 C0 4.69 0 2.38 0 0 Z " fill="#68DDE0" transform="translate(239,226)"/>
<path d="M0 0 C0.99 0 1.98 0 3 0 C6.1244189 3.86728773 6.33497756 6.94574051 6.1875 11.8125 C6.16042969 12.97394531 6.13335937 14.13539063 6.10546875 15.33203125 C6.07066406 16.21246094 6.03585938 17.09289062 6 18 C4.02 18.99 4.02 18.99 2 20 C1.93941406 18.72382813 1.87882813 17.44765625 1.81640625 16.1328125 C1.73200432 14.46352984 1.64735614 12.79425963 1.5625 11.125 C1.52318359 10.28324219 1.48386719 9.44148437 1.44335938 8.57421875 C1.40146484 7.76855469 1.35957031 6.96289062 1.31640625 6.1328125 C1.26141968 5.01737061 1.26141968 5.01737061 1.20532227 3.87939453 C1.10044135 1.91135688 1.10044135 1.91135688 0 0 Z " fill="#5DE0E4" transform="translate(127,238)"/>
<path d="M0 0 C0.33 0 0.66 0 1 0 C1 2.64 1 5.28 1 8 C3.97 8.99 6.94 9.98 10 11 C10 10.34 10 9.68 10 9 C8.68 8.67 7.36 8.34 6 8 C6.33 7.01 6.66 6.02 7 5 C8.36125 5.9590625 8.36125 5.9590625 9.75 6.9375 C12.39221381 8.61428953 13.9898499 9.53689998 17 10 C16.67 11.32 16.34 12.64 16 14 C13.89455987 13.71767279 11.79066411 13.4238102 9.6875 13.125 C8.51574219 12.96257812 7.34398438 12.80015625 6.13671875 12.6328125 C3 12 3 12 0 10 C-0.29296875 7.6171875 -0.29296875 7.6171875 -0.1875 4.875 C-0.16042969 3.96492187 -0.13335937 3.05484375 -0.10546875 2.1171875 C-0.07066406 1.41851562 -0.03585938 0.71984375 0 0 Z " fill="#94E4E6" transform="translate(60,223)"/>
<path d="M0 0 C1.99954746 -0.04254356 4.00041636 -0.04080783 6 0 C7 1 7 1 7.09765625 3.28515625 C7.08605469 4.20167969 7.07445312 5.11820313 7.0625 6.0625 C7.05347656 6.98160156 7.04445313 7.90070313 7.03515625 8.84765625 C7.02355469 9.55792969 7.01195312 10.26820313 7 11 C7.66 11 8.32 11 9 11 C9 7.37 9 3.74 9 0 C10.98 0 12.96 0 15 0 C13.68 0.33 12.36 0.66 11 1 C11.020625 2.216875 11.04125 3.43375 11.0625 4.6875 C11.06824116 7.91977322 10.78766315 10.84934741 10 14 C9.01 14.33 8.02 14.66 7 15 C6.34 14.67 5.68 14.34 5 14 C5 9.71 5 5.42 5 1 C3.35 1 1.7 1 0 1 C0 0.67 0 0.34 0 0 Z " fill="#A2E7E9" transform="translate(264,221)"/>
<path d="M0 0 C0.99 0.33 1.98 0.66 3 1 C3.33 6.61 3.66 12.22 4 18 C4.99 17.67 5.98 17.34 7 17 C5.95125002 19.62187494 5.35068687 20.79371361 2.875 22.25 C2.25625 22.4975 1.6375 22.745 1 23 C-0.03519902 19.54933661 0.07152441 16.7075083 0.5 13.1875 C1.04883749 8.55364423 0.76560288 4.59361726 0 0 Z " fill="#93E5E8" transform="translate(126,239)"/>
<path d="M0 0 C1.19109375 -0.00386719 1.19109375 -0.00386719 2.40625 -0.0078125 C4.5 0.125 4.5 0.125 6.5 1.125 C6.5 2.445 6.5 3.765 6.5 5.125 C3.35262818 4.42558404 0.47411124 3.36421302 -2.5 2.125 C-2.5 4.105 -2.5 6.085 -2.5 8.125 C-1.84 8.455 -1.18 8.785 -0.5 9.125 C-2.15 8.795 -3.8 8.465 -5.5 8.125 C-5.83 5.815 -6.16 3.505 -6.5 1.125 C-4.13386544 -0.05806728 -2.63219264 -0.00854608 0 0 Z " fill="#8FE3E4" transform="translate(156.5,216.875)"/>
<path d="M0 0 C0.66 0 1.32 0 2 0 C2 2.64 2 5.28 2 8 C2.66 8 3.32 8 4 8 C3.75 9.875 3.75 9.875 3 12 C0.9375 13.25 0.9375 13.25 -1 14 C-1.93385816 11.19842552 -2.16354595 9.34552197 -2.1875 6.4375 C-2.20167969 5.65246094 -2.21585938 4.86742187 -2.23046875 4.05859375 C-2 2 -2 2 0 0 Z " fill="#5BE1E6" transform="translate(65,189)"/>
<path d="M0 0 C0 4.95 0 9.9 0 15 C-0.99 15 -1.98 15 -3 15 C-3 11.7 -3 8.4 -3 5 C-3.99 5 -4.98 5 -6 5 C-5.625 3.0625 -5.625 3.0625 -5 1 C-3 0 -3 0 0 0 Z " fill="#6FD9DF" transform="translate(194,220)"/>
<path d="M0 0 C0.66 0.33 1.32 0.66 2 1 C2 3.31 2 5.62 2 8 C-0.91708924 9.98362069 -2.12380904 9.9876191 -5.75 9.625 C-6.8225 9.41875 -7.895 9.2125 -9 9 C-9 8.01 -9 7.02 -9 6 C-5.535 5.505 -5.535 5.505 -2 5 C-2 3.68 -2 2.36 -2 1 C-1.34 0.67 -0.68 0.34 0 0 Z " fill="#86E0E5" transform="translate(160,226)"/>
<path d="M0 0 C0.99 0 1.98 0 3 0 C3 2.31 3 4.62 3 7 C2.34 7 1.68 7 1 7 C1 7.66 1 8.32 1 9 C-1.64 9 -4.28 9 -7 9 C-7 9.99 -7 10.98 -7 12 C-7.66 12 -8.32 12 -9 12 C-8.67 10.02 -8.34 8.04 -8 6 C-4.535 5.505 -4.535 5.505 -1 5 C-0.67 3.35 -0.34 1.7 0 0 Z " fill="#64DEDF" transform="translate(388,221)"/>
<path d="M0 0 C3.06261493 1.02087164 4.05779403 1.52810149 6 4 C6.6875 6.6875 6.6875 6.6875 7 9 C5.02 9 3.04 9 1 9 C1 7.68 1 6.36 1 5 C-0.98 5 -2.96 5 -5 5 C-5 4.34 -5 3.68 -5 3 C-3.68 3 -2.36 3 -1 3 C-0.67 2.01 -0.34 1.02 0 0 Z " fill="#84DFE1" transform="translate(219,226)"/>
<path d="M0 0 C1.32 0.66 2.64 1.32 4 2 C4 4.31 4 6.62 4 9 C3.01 9.495 3.01 9.495 2 10 C2 9.34 2 8.68 2 8 C-2.455 8.495 -2.455 8.495 -7 9 C-7 7.02 -7 5.04 -7 3 C-6.01 3.495 -6.01 3.495 -5 4 C-5.33 5.32 -5.66 6.64 -6 8 C-4.68 7.67 -3.36 7.34 -2 7 C-2 6.34 -2 5.68 -2 5 C-2.66 4.34 -3.32 3.68 -4 3 C-3.34 3 -2.68 3 -2 3 C-1.67 2.34 -1.34 1.68 -1 1 C-0.67 1.99 -0.34 2.98 0 4 C0 2.68 0 1.36 0 0 Z " fill="#9FEAEF" transform="translate(249,218)"/>
<path d="M0 0 C0 0.66 0 1.32 0 2 C0.99 2.33 1.98 2.66 3 3 C2.67 5.64 2.34 8.28 2 11 C-1 10 -1 10 -2 8.0625 C-2.33 7.381875 -2.66 6.70125 -3 6 C-3.99 5.34 -4.98 4.68 -6 4 C-6 3.34 -6 2.68 -6 2 C-2.25 0 -2.25 0 0 0 Z " fill="#5CE1E3" transform="translate(80,206)"/>
<path d="M0 0 C1.231394 2.46278801 1.07159196 4.2795055 1 7 C1.66 7 2.32 7 3 7 C3.33 6.01 3.66 5.02 4 4 C4.33 5.98 4.66 7.96 5 10 C6.65 10.33 8.3 10.66 10 11 C8.125 12.0625 8.125 12.0625 6 13 C5.34 12.67 4.68 12.34 4 12 C3.01 12.33 2.02 12.66 1 13 C-1.45002524 9.76596668 -2.02554967 8.38324512 -1.75 4.25 C-1 1 -1 1 0 0 Z " fill="#95E6E9" transform="translate(291,220)"/>
<path d="M0 0 C1.98 0 3.96 0 6 0 C5.01 1.98 4.02 3.96 3 6 C2.34 6 1.68 6 1 6 C0.67 7.98 0.34 9.96 0 12 C-0.66 11.67 -1.32 11.34 -2 11 C-2.28571429 3.57142857 -2.28571429 3.57142857 0 0 Z " fill="#73E0E2" transform="translate(293,218)"/>
<path d="M0 0 C0.99 0 1.98 0 3 0 C2.43174347 5.54050113 0.37113483 10.03715966 -2 15 C-2.99 14.67 -3.98 14.34 -5 14 C-3.45730076 9.27934033 -1.92205381 4.58335908 0 0 Z " fill="#828282" transform="translate(107,209)"/>
<path d="M0 0 C1.65 0 3.3 0 5 0 C5 3.96 5 7.92 5 12 C4.67 12 4.34 12 4 12 C3.67 8.7 3.34 5.4 3 2 C2.34 2 1.68 2 1 2 C1 6.29 1 10.58 1 15 C-0.91151056 11.17697889 -1.2533646 9.86616705 -1.1875 5.8125 C-1.18105469 4.93207031 -1.17460937 4.05164063 -1.16796875 3.14453125 C-1 1 -1 1 0 0 Z " fill="#A5E9EB" transform="translate(321,217)"/>
<path d="M0 0 C1.65 0 3.3 0 5 0 C6 1 6 1 6.09765625 3.50390625 C6.08605469 4.51324219 6.07445312 5.52257812 6.0625 6.5625 C6.05347656 7.57441406 6.04445313 8.58632812 6.03515625 9.62890625 C6.02355469 10.41136719 6.01195312 11.19382813 6 12 C5.01 12.495 5.01 12.495 4 13 C4 9.37 4 5.74 4 2 C3.01 2.495 3.01 2.495 2 3 C1.53476937 4.89533342 1.53476937 4.89533342 1.375 7.0625 C1.25125 8.361875 1.1275 9.66125 1 11 C0.67 11 0.34 11 0 11 C0 7.37 0 3.74 0 0 Z " fill="#A5E9EC" transform="translate(332,217)"/>
<path d="M0 0 C1.51400391 0.01740234 1.51400391 0.01740234 3.05859375 0.03515625 C4.07050781 0.04417969 5.08242188 0.05320313 6.125 0.0625 C7.29869141 0.07990234 7.29869141 0.07990234 8.49609375 0.09765625 C8.49609375 1.08765625 8.49609375 2.07765625 8.49609375 3.09765625 C5.19609375 3.09765625 1.89609375 3.09765625 -1.50390625 3.09765625 C-1.17390625 4.74765625 -0.84390625 6.39765625 -0.50390625 8.09765625 C-1.49390625 7.76765625 -2.48390625 7.43765625 -3.50390625 7.09765625 C-3.54644981 5.09810879 -3.54471408 3.09723989 -3.50390625 1.09765625 C-2.50390625 0.09765625 -2.50390625 0.09765625 0 0 Z " fill="#66DEDD" transform="translate(354.50390625,224.90234375)"/>
<path d="M0 0 C0.66 0 1.32 0 2 0 C2.33820166 1.5823006 2.67035939 3.16589375 3 4.75 C3.185625 5.63171875 3.37125 6.5134375 3.5625 7.421875 C4 10 4 10 4 14 C2.68 13.67 1.36 13.34 0 13 C0 8.71 0 4.42 0 0 Z " fill="#65DDDD" transform="translate(322,219)"/>
<path d="M0 0 C1.98 0 3.96 0 6 0 C4.84414715 3.91211733 3.64465038 6.8745041 1 10 C0.67 8.68 0.34 7.36 0 6 C-0.66 6 -1.32 6 -2 6 C-1.34 4.02 -0.68 2.04 0 0 Z " fill="#9DE6E8" transform="translate(415,217)"/>
<path d="M0 0 C0.33 0 0.66 0 1 0 C1 4.29 1 8.58 1 13 C0.01 13 -0.98 13 -2 13 C-5 7.25 -5 7.25 -5 5 C-4.01 5.33 -3.02 5.66 -2 6 C-1.34 4.02 -0.68 2.04 0 0 Z " fill="#A8EBEA" transform="translate(90,185)"/>
<path d="M0 0 C1.65 0 3.3 0 5 0 C8.27682935 5.18831313 8.79382983 10.01019307 8 16 C7.34 16.99 6.68 17.98 6 19 C5.95101562 18.11957031 5.90203125 17.23914063 5.8515625 16.33203125 C5.77679688 15.17058594 5.70203125 14.00914062 5.625 12.8125 C5.52058594 11.08966797 5.52058594 11.08966797 5.4140625 9.33203125 C5.01940588 6.15616244 4.51211293 3.81335298 3 1 C2.01 0.67 1.02 0.34 0 0 Z " fill="#91E5E6" transform="translate(127,237)"/>
<path d="M0 0 C1.98 0 3.96 0 6 0 C7.32 2.31 8.64 4.62 10 7 C9.236875 6.835 8.47375 6.67 7.6875 6.5 C4.96403764 5.90854604 4.96403764 5.90854604 2 6 C1.34 4.02 0.68 2.04 0 0 Z " fill="#9CE7EA" transform="translate(403,217)"/>
<path d="M0 0 C2.64 0 5.28 0 8 0 C7.67 2.64 7.34 5.28 7 8 C4.46645681 6.16536528 2.05870512 4.36751088 0 2 C0 1.34 0 0.68 0 0 Z " fill="#65DEE3" transform="translate(82,184)"/>
<path d="M0 0 C2.49304155 3.73956233 2.40180557 6.43114607 2.65625 10.8203125 C2.7696875 11.53960937 2.883125 12.25890625 3 13 C3.66 13.33 4.32 13.66 5 14 C5 14.66 5 15.32 5 16 C4.34 16 3.68 16 3 16 C-0.22889075 11.05576103 -1.5964336 8.0836227 -1 2 C-0.67 1.34 -0.34 0.68 0 0 Z " fill="#9AE6E9" transform="translate(61,190)"/>
<path d="M0 0 C2.31 0 4.62 0 7 0 C6.67 4.29 6.34 8.58 6 13 C5.34 13 4.68 13 4 13 C3.96261719 12.31292969 3.92523438 11.62585938 3.88671875 10.91796875 C3.82097656 10.01691406 3.75523437 9.11585938 3.6875 8.1875 C3.62949219 7.29417969 3.57148438 6.40085938 3.51171875 5.48046875 C2.93686419 2.69396 2.1793144 1.75864246 0 0 Z " fill="#5FDFE3" transform="translate(267,219)"/>
<path d="M0 0 C-0.66 2.97 -1.32 5.94 -2 9 C-2.33 9 -2.66 9 -3 9 C-3 7.35 -3 5.7 -3 4 C-4.65 5.32 -6.3 6.64 -8 8 C-8.36075949 3.55063291 -8.36075949 3.55063291 -6.8125 1.1875 C-4.44017475 -0.36678206 -2.77958655 -0.22537188 0 0 Z " fill="#7DE1E1" transform="translate(70,185)"/>
<path d="M0 0 C0.61875 0.185625 1.2375 0.37125 1.875 0.5625 C4.04160178 1.23686176 4.04160178 1.23686176 6 0 C5.67 0.99 5.34 1.98 5 3 C4.01 3 3.02 3 2 3 C2 3.66 2 4.32 2 5 C3.98 5 5.96 5 8 5 C5 7 5 7 1.4375 6.8125 C-2 6 -2 6 -4 3 C-2.68 3.33 -1.36 3.66 0 4 C0 2.68 0 1.36 0 0 Z " fill="#A0E8EB" transform="translate(326,229)"/>
<path d="M0 0 C1.32 0.66 2.64 1.32 4 2 C3.67 2.99 3.34 3.98 3 5 C4.32 5.33 5.64 5.66 7 6 C7 6.66 7 7.32 7 8 C4.19637237 8.22732116 2.53813483 8.34081872 0.125 6.8125 C-1 5 -1 5 -0.6875 2.3125 C-0.460625 1.549375 -0.23375 0.78625 0 0 Z " fill="#60DEE2" transform="translate(63,226)"/>
<path d="M0 0 C1.74627478 2.61941217 2.38722388 4.03824877 3 7 C1.02 7 -0.96 7 -3 7 C-3.33 5.68 -3.66 4.36 -4 3 C-5.32 2.67 -6.64 2.34 -8 2 C-5.69 2 -3.38 2 -1 2 C-0.67 1.34 -0.34 0.68 0 0 Z " fill="#94E5E7" transform="translate(250,228)"/>
<path d="M0 0 C3.96 0 7.92 0 12 0 C12 0.66 12 1.32 12 2 C10.14375 2.1546875 10.14375 2.1546875 8.25 2.3125 C4.7207134 2.73801682 2.62839034 3.48112592 0 6 C0 4.02 0 2.04 0 0 Z " fill="#68DBDD" transform="translate(351,218)"/>
<path d="M0 0 C1.0828125 0.7115625 1.0828125 0.7115625 2.1875 1.4375 C4.89475226 2.94152903 6.96194275 3.56599182 10 4 C10 4.66 10 5.32 10 6 C5.48281619 7.36884358 2.41225737 6.47075246 -2 5 C-1.01 4.67 -0.02 4.34 1 4 C0.67 2.68 0.34 1.36 0 0 Z " fill="#B5EDEA" transform="translate(127,270)"/>
<path d="M0 0 C1.00109515 3.31070838 1.10356134 6.30084769 1.0625 9.75 C1.05347656 10.73484375 1.04445313 11.7196875 1.03515625 12.734375 C1.02355469 13.48203125 1.01195313 14.2296875 1 15 C-1.4798191 12.78826945 -1.99613366 12.01491302 -2.875 8.625 C-3.01284245 4.62756904 -2.3746355 3.13451886 0 0 Z " fill="#9DE6EA" transform="translate(103,246)"/>
<path d="M0 0 C0.598125 0.226875 1.19625 0.45375 1.8125 0.6875 C0.8225 1.3475 -0.1675 2.0075 -1.1875 2.6875 C1.4525 3.0175 4.0925 3.3475 6.8125 3.6875 C6.4825 5.0075 6.1525 6.3275 5.8125 7.6875 C5.8125 6.6975 5.8125 5.7075 5.8125 4.6875 C2.1825 5.0175 -1.4475 5.3475 -5.1875 5.6875 C-5.1875 2.6875 -5.1875 2.6875 -3.9375 0.9375 C-2.1875 -0.3125 -2.1875 -0.3125 0 0 Z " fill="#94E6EB" transform="translate(357.1875,220.3125)"/>
<path d="M0 0 C3 1 3 1 5 4 C5.30078125 5.9375 5.30078125 5.9375 5.3125 8 C5.32925781 8.680625 5.34601563 9.36125 5.36328125 10.0625 C4.90165342 12.52451507 3.88101041 13.41181179 2 15 C2.03480469 14.12988281 2.03480469 14.12988281 2.0703125 13.2421875 C2.18250423 8.38588834 1.87514915 4.57067605 0 0 Z " fill="#96E3E5" transform="translate(304,218)"/>
<path d="M0 0 C0.33 0 0.66 0 1 0 C1.07347656 1.19496094 1.07347656 1.19496094 1.1484375 2.4140625 C1.70029395 10.38157314 1.70029395 10.38157314 4 18 C3.01 18 2.02 18 1 18 C0.06380187 14.84493858 -0.1057123 12.03413498 -0.0625 8.75 C-0.05347656 7.85796875 -0.04445313 6.9659375 -0.03515625 6.046875 C-0.02355469 5.37140625 -0.01195313 4.6959375 0 4 C-0.66 4 -1.32 4 -2 4 C-1.34 2.68 -0.68 1.36 0 0 Z " fill="#B0ECED" transform="translate(106,242)"/>
<path d="M0 0 C1.3921875 0.3403125 1.3921875 0.3403125 2.8125 0.6875 C2.4825 2.0075 2.1525 3.3275 1.8125 4.6875 C0.1625 5.0175 -1.4875 5.3475 -3.1875 5.6875 C-3.1875 5.0275 -3.1875 4.3675 -3.1875 3.6875 C-4.1775 3.3575 -5.1675 3.0275 -6.1875 2.6875 C-4.14987265 -0.14253799 -3.59070275 -0.35202968 0 0 Z " fill="#5BE1E3" transform="translate(72.1875,201.3125)"/>
<path d="M0 0 C0.33 0.66 0.66 1.32 1 2 C1.99 1.67 2.98 1.34 4 1 C4 2.32 4 3.64 4 5 C3 6 3 6 -0.5625 6.0625 C-1.696875 6.041875 -2.83125 6.02125 -4 6 C-4 5.34 -4 4.68 -4 4 C-3.01 3.67 -2.02 3.34 -1 3 C-0.67 2.01 -0.34 1.02 0 0 Z " fill="#77DFE3" transform="translate(332,228)"/>
<path d="M0 0 C0.99 0.33 1.98 0.66 3 1 C3.33 2.65 3.66 4.3 4 6 C2.35 6 0.7 6 -1 6 C-1.66 4.68 -2.32 3.36 -3 2 C-2.01 2 -1.02 2 0 2 C0 1.34 0 0.68 0 0 Z " fill="#84E3E3" transform="translate(124,268)"/>
<path d="M0 0 C0.99 1.32 1.98 2.64 3 4 C2.54625 4.4125 2.0925 4.825 1.625 5.25 C-0.05950374 7.06408095 -0.99265971 8.75285627 -2 11 C-2 9.02 -2 7.04 -2 5 C-2.99 4.67 -3.98 4.34 -5 4 C-3.35 2.68 -1.7 1.36 0 0 Z " fill="#A6EBEC" transform="translate(125,259)"/>
<path d="M0 0 C0.99 0.33 1.98 0.66 3 1 C3 6.61 3 12.22 3 18 C2.67 18 2.34 18 2 18 C1.34 12.06 0.68 6.12 0 0 Z " fill="#89E0E2" transform="translate(126,239)"/>
<path d="M0 0 C1.1446875 0.2784375 1.1446875 0.2784375 2.3125 0.5625 C5.08967375 1.22819173 5.08967375 1.22819173 8 0 C8 1.98 8 3.96 8 6 C7.34 5.34 6.68 4.68 6 4 C4.65938457 4.30271961 3.32594105 4.63837971 2 5 C1.01 4.67 0.02 4.34 -1 4 C-0.67 2.68 -0.34 1.36 0 0 Z " fill="#74DEE4" transform="translate(408,222)"/>
<path d="M0 0 C0.99 0.33 1.98 0.66 3 1 C3.625 4.375 3.625 4.375 4 8 C3.34 8.66 2.68 9.32 2 10 C2 7.69 2 5.38 2 3 C0.02 3.99 0.02 3.99 -2 5 C-2.66 4.34 -3.32 3.68 -4 3 C-2.1875 1.4375 -2.1875 1.4375 0 0 Z " fill="#9AEAEB" transform="translate(389,218)"/>
<path d="M0 0 C0.66 0.33 1.32 0.66 2 1 C0.72278474 5.99275057 -1.17330957 8.57611908 -5 12 C-5.33 10.68 -5.66 9.36 -6 8 C-5.34 8 -4.68 8 -4 8 C-3.67 7.01 -3.34 6.02 -3 5 C-2.34 5 -1.68 5 -1 5 C-0.67 3.35 -0.34 1.7 0 0 Z " fill="#A1E5E7" transform="translate(88,211)"/>
<path d="M0 0 C0.33 0 0.66 0 1 0 C1 2.64 1 5.28 1 8 C3.93720508 9.52299523 6.9168649 10.80100302 10 12 C8.375 12.6875 8.375 12.6875 6 13 C2.75 11.5625 2.75 11.5625 0 10 C0 6.7 0 3.4 0 0 Z " fill="#9DE9E9" transform="translate(60,223)"/>
<path d="M0 0 C0.66 0 1.32 0 2 0 C2 0.66 2 1.32 2 2 C2.66 2 3.32 2 4 2 C3.34 3.98 2.68 5.96 2 8 C1.34 8 0.68 8 0 8 C-1.125 2.25 -1.125 2.25 0 0 Z " fill="#76E1E1" transform="translate(211,222)"/>
<path d="M0 0 C0.99 0.33 1.98 0.66 3 1 C2.67 2.32 2.34 3.64 2 5 C-0.31 5 -2.62 5 -5 5 C-5 4.34 -5 3.68 -5 3 C-3.68 3 -2.36 3 -1 3 C-0.67 2.01 -0.34 1.02 0 0 Z " fill="#61E0E3" transform="translate(219,226)"/>
<path d="M0 0 C0.99 0 1.98 0 3 0 C3 0.99 3 1.98 3 3 C3.66 3 4.32 3 5 3 C5 3.99 5 4.98 5 6 C3.35 6.33 1.7 6.66 0 7 C0 4.69 0 2.38 0 0 Z " fill="#5EE0E3" transform="translate(177,219)"/>
<path d="M0 0 C0.99 0.33 1.98 0.66 3 1 C3 2.32 3 3.64 3 5 C1.02 5 -0.96 5 -3 5 C-2.625 3.0625 -2.625 3.0625 -2 1 C-1.34 0.67 -0.68 0.34 0 0 Z " fill="#89DFE0" transform="translate(209,230)"/>
<path d="M0 0 C0.99 0 1.98 0 3 0 C3 1.98 3 3.96 3 6 C1.68 6 0.36 6 -1 6 C-1.042721 4.33388095 -1.04063832 2.66617115 -1 1 C-0.67 0.67 -0.34 0.34 0 0 Z " fill="#7EE1E7" transform="translate(184,228)"/>
<path d="M0 0 C0.99 0 1.98 0 3 0 C2.25 5.75 2.25 5.75 0 8 C-0.66 7.67 -1.32 7.34 -2 7 C-1.34 4.69 -0.68 2.38 0 0 Z " fill="#8C8C8C" transform="translate(107,209)"/>
<path d="M0 0 C1.46313772 0.76167457 2.92036661 1.53470707 4.375 2.3125 C5.18710938 2.74175781 5.99921875 3.17101562 6.8359375 3.61328125 C9 5 9 5 11 8 C6.51400257 6.74809374 3.40652872 5.20614467 0 2 C0 1.34 0 0.68 0 0 Z " fill="#9CEBEB" transform="translate(77,203)"/>
<path d="M0 0 C0.99 0.33 1.98 0.66 3 1 C2.34 3.31 1.68 5.62 1 8 C0.01 7.67 -0.98 7.34 -2 7 C-1.34 4.69 -0.68 2.38 0 0 Z " fill="#8C8C8C" transform="translate(93,243)"/>
<path d="M0 0 C0 1.98 0 3.96 0 6 C0.66 6.33 1.32 6.66 2 7 C0.35 6.67 -1.3 6.34 -3 6 C-3 4.35 -3 2.7 -3 1 C-1 0 -1 0 0 0 Z " fill="#60E0E4" transform="translate(154,219)"/>
<path d="M0 0 C0.99 0 1.98 0 3 0 C2.67 2.31 2.34 4.62 2 7 C1.34 7 0.68 7 0 7 C0 4.69 0 2.38 0 0 Z " fill="#5CE1E4" transform="translate(239,226)"/>
<path d="M0 0 C3.25543229 0.34879632 4.01873107 1.02133261 6.25 3.5625 C6.8275 4.366875 7.405 5.17125 8 6 C5 6 5 6 2.3125 3.5625 C0 1 0 1 0 0 Z " fill="#8AE4E5" transform="translate(65,204)"/>
<path d="M0 0 C0 1.65 0 3.3 0 5 C-1.65 5 -3.3 5 -5 5 C-4.625 3.0625 -4.625 3.0625 -4 1 C-2 0 -2 0 0 0 Z " fill="#5EE0E6" transform="translate(193,220)"/>
<path d="M0 0 C1.65 0 3.3 0 5 0 C5.33 1.65 5.66 3.3 6 5 C5.34 5 4.68 5 4 5 C4 4.34 4 3.68 4 3 C2.68 2.67 1.36 2.34 0 2 C0 1.34 0 0.68 0 0 Z " fill="#63DEDE" transform="translate(213,219)"/>
<path d="M0 0 C0.66 0.33 1.32 0.66 2 1 C2 2.65 2 4.3 2 6 C1.01 6 0.02 6 -1 6 C-1.33 4.35 -1.66 2.7 -2 1 C-1.34 0.67 -0.68 0.34 0 0 Z " fill="#60DFDF" transform="translate(160,226)"/>
</svg>
